<svg version="1.1" id="Слой_1" xmlns="http://www.w3.org/2000/svg" x="0" y="0" viewBox="0 0 200 200" xml:space="preserve"><style>.st1{fill:#fff}</style><circle cx="100" cy="100" r="97.5" opacity=".3"/><path class="st1" d="M70.3 65.7v68.5c0 7 7.5 11.5 13.6 8.1l61.8-34.3c6.3-3.5 6.3-12.6 0-16.1L84 57.7c-6.2-3.4-13.7 1-13.7 8z"/><path class="st1" d="M100 11.5c48.8 0 88.5 39.7 88.5 88.5s-39.7 88.5-88.5 88.5-88.5-39.7-88.5-88.5S51.2 11.5 100 11.5m0-9C46.2 2.5 2.5 46.2 2.5 100s43.7 97.5 97.5 97.5 97.5-43.7 97.5-97.5S153.8 2.5 100 2.5z"/></svg>