<svg xmlns="http://www.w3.org/2000/svg" viewBox="0 0 250 250"><path d="M201.8 34.9H151c-7.4 0-13.4 6-13.4 13.4s6 13.4 13.4 13.4h18.4l-27.9 27.9c-2.5 2.5-3.9 5.9-3.9 9.5 0 3.6 1.4 7 3.9 9.5s5.9 3.9 9.5 3.9c3.6 0 7-1.4 9.5-3.9l27.9-27.9v18.4c0 7.4 6 13.4 13.4 13.4s13.4-6 13.4-13.4V48.3c.1-7.4-6-13.4-13.4-13.4zm-89.3 115.9c0-3.6-1.4-7-3.9-9.5s-5.9-3.9-9.5-3.9c-3.6 0-7 1.4-9.5 3.9l-27.9 27.9v-18.4c0-7.4-6-13.4-13.4-13.4s-13.4 6-13.4 13.4v50.9c0 7.4 6 13.4 13.4 13.4H99c7.4 0 13.4-6 13.4-13.4s-6-13.4-13.4-13.4H80.6l27.9-27.9c2.6-2.6 4-6 4-9.6z" fill="#fff"/></svg>