<?xml version="1.0" encoding="utf-8"?>
<!-- Generator: Adobe Illustrator 25.4.1, SVG Export Plug-In . SVG Version: 6.00 Build 0)  -->
<svg version="1.1" id="Слой_1" xmlns="http://www.w3.org/2000/svg" xmlns:xlink="http://www.w3.org/1999/xlink" x="0px" y="0px"
	 viewBox="0 0 1024 1024" style="enable-background:new 0 0 1024 1024;" xml:space="preserve">
<style type="text/css">
	.st0{fill:#0F73EA;}
	.st1{fill:#FFFFFF;}
</style>
<circle class="st0" cx="512.4" cy="512.4" r="508"/>
<path class="st1" d="M223.4,423.5h97.5c12,0.1,21.7,9.8,21.7,21.9c0,0.1,0,0.1,0,0.2V734c0,12-9.7,21.7-21.7,21.8h-97.5
	c-12-0.1-21.7-9.8-21.7-21.8V445.5c0-12,9.7-21.7,21.7-21.8V423.5z M499.7,207c11.5-58,106.4-4.6,112.7,88.9
	c1.4,33.3-1.4,66.6-8.2,99.2h135.7c56.4,2.2,105.7,42.6,70.7,109c7.9,28.9,9.1,62.8-12.4,76.2c2.7,45.5-10.1,74-33.6,96.3
	c-1.6,22.8-6.4,43.1-17.4,58.7c-18.2,25.7-33,19.6-61.7,19.6h-229c-36.3,0-56.1-10.1-79.9-39.8V459.7
	c68.3-18.4,104.6-111.9,123.1-173.3V207z"/>
</svg>
