<svg version="1.1" id="Слой_1" xmlns="http://www.w3.org/2000/svg" x="0" y="0" viewBox="0 0 14 13" xml:space="preserve"><style>.st0{fill:#fff}</style><path class="st0" d="M2.6 9.2H.8c-.4 0-.7-.3-.7-.7V4.6c0-.4.3-.7.7-.7h1.8v5.3zm4.9 3.5L3.6 9.2V3.9L7.4.3c.3-.3.8-.1.8.3v11.8c0 .4-.5.6-.7.3zm3-9.4c-.1-.1-.3-.1-.4 0l-.4.5c-.1.1-.1.2 0 .3.5.6.9 1.5.9 2.4s-.4 1.8-.9 2.4c-.1.1-.1.3 0 .4l.3.4c.1.1.3.1.4 0 .7-.9 1.2-2 1.2-3.2s-.4-2.3-1.1-3.2z"/><path class="st0" d="M12.1 1.7c-.1-.1-.3-.1-.4 0l-.4.4c-.1.1-.1.3 0 .4 1 1.1 1.5 2.5 1.5 4s-.5 2.9-1.5 4c-.1.1-.1.3 0 .4l.4.4c.1.1.3.1.4 0 1.2-1.2 1.9-2.9 1.9-4.8-.1-1.8-.8-3.4-1.9-4.8z"/></svg>