<svg xmlns="http://www.w3.org/2000/svg" viewBox="0 0 30 30"><path d="M25 20.7c0-2 1.6-3.6 3.6-3.6.3 0 .5 0 .8.1.1-.7.2-1.4.2-2.1 0-.7-.1-1.4-.2-2-.3.1-.5.1-.8.1-2 0-3.6-1.6-3.6-3.6 0-1.3.7-2.4 1.8-3.1-.9-1.2-1.9-2.2-3-3.1-.6 1.1-1.8 1.8-3.1 1.8-2 0-3.6-1.6-3.6-3.6 0-.3.1-.6.1-1-.7-.1-1.4-.2-2.2-.2-.7 0-1.4.1-2 .2.1.3.2.6.2 1 0 2-1.6 3.6-3.6 3.6-1.5 0-2.6-.8-3.2-1.9-1.2.9-2.3 1.9-3.2 3.1C4.3 7 5 8.2 5 9.4c0 2-1.6 3.6-3.6 3.6-.3 0-.5 0-.8-.1-.1.7-.2 1.4-.2 2.1 0 .7.1 1.4.2 2h.8c2 0 3.6 1.6 3.6 3.6 0 1.3-.7 2.4-1.8 3.1.9 1.2 2 2.3 3.2 3.2.6-1 1.7-1.6 3-1.6 2 0 3.6 1.6 3.6 3.6 0 .2 0 .4-.1.7.7.1 1.3.2 2 .2s1.4-.1 2-.2c0-.2-.1-.4-.1-.7 0-2 1.6-3.6 3.6-3.6 1.3 0 2.4.6 3 1.6 1.2-.9 2.3-2 3.2-3.2-.9-.6-1.6-1.8-1.6-3zM15 22c-3.8 0-6.9-3.1-6.9-6.9s3.1-6.9 6.9-6.9 6.9 3.1 6.9 6.9S18.8 22 15 22z" fill="#fff"/></svg>